# AST/ASF file generated using VICON BodyLanguage
# -----------------------------------------------
:version 1.10
:name VICON
:units
  mass 1.0
  length 0.45
  angle deg
:documentation
   .ast/.asf automatically generated from VICON data using
   VICON BodyBuilder and BodyLanguage model FoxedUp or BRILLIANT.MOD
:root
   order TX TY TZ RX RY RZ
   axis XYZ
   position 0 0 0  
   orientation 0 0 0 
:bonedata
  begin
     id 1 
     name lhipjoint
     direction 0.566809 -0.746272 0.349008 
     length 2.40479 
     axis 0 0 0  XYZ
  end
  begin
     id 2 
     name lfemur
     direction 0.34202 -0.939693 0  
     length 7.1578  
     axis 0 0 20  XYZ
    dof rx ry rz
    limits (-160.0 20.0)
           (-70.0 70.0)
           (-60.0 70.0)
  end
  begin
     id 3 
     name ltibia
     direction 0.34202 -0.939693 0   
     length 7.49137   
     axis 0 0 20   XYZ
    dof rx
    limits (-10.0 170.0)
  end
  begin
     id 4 
     name lfoot
     direction 0.0665746 -0.182912 0.980873   
     length 2.36784   
     axis -90 7.62852e-016 20   XYZ
    dof rx rz
    limits (-45.0 90.0)
           (-70.0 20.0)
  end
  begin
     id 5 
     name ltoes
     direction 1.53601e-011 -4.22058e-011 1   
     length 1.18966   
     axis -90 7.62852e-016 20   XYZ
    dof rx
    limits (-90.0 20.0)
  end
  begin
     id 6 
     name rhipjoint
     direction -0.550236 -0.756381 0.353735   
     length 2.37265  
     axis 0 0 0  XYZ 
  end
  begin
     id 7 
     name rfemur
     direction -0.34202 -0.939693 0   
     length 7.43386   
     axis 0 0 -20   XYZ
    dof rx ry rz
    limits (-160.0 20.0)
           (-70.0 70.0)
           (-70.0 60.0)
  end
  begin
     id 8 
     name rtibia
     direction -0.34202 -0.939693 0   
     length 7.50908   
     axis 0 0 -20   XYZ
    dof rx
    limits (-10.0 170.0)
 end
 begin
     id 9 
     name rfoot
     direction -0.0683029 -0.187661 0.979856   
     length 2.41173  
     axis -90 -7.62852e-016 -20   XYZ
    dof rx rz
    limits (-45.0 90.0)
           (-20.0 70.0)
  end
  begin
     id 10 
     name rtoes
     direction -1.53528e-011 -4.21968e-011 1   
     length 1.21082   
     axis -90 -7.62852e-016 -20   XYZ
    dof rx
    limits (-90.0 20.0)
  end
  begin
     id 11 
     name lowerback
     direction 0.013823 0.995423 -0.0945635   
     length 2.04495   
     axis 0 0 0   XYZ
    dof rx ry rz
    limits (-20.0 45.0)
           (-30.0 30.0)
           (-30.0 30.0)
  end
  begin
     id 12 
     name upperback
     direction 0.0276657 0.9994 -0.020853   
     length 2.05008   
     axis 0 0 0   XYZ
    dof rx ry rz
    limits (-20.0 45.0)
           (-30.0 30.0)
           (-30.0 30.0)
  end
  begin
     id 13 
     name thorax
     direction 0.019782 0.999531 0.0233827   
     length 2.06488   
     axis 0 0 0   XYZ
    dof rx ry rz
    limits (-20.0 45.0)
           (-30.0 30.0)
           (-30.0 30.0)
  end
  begin
     id 14 
     name lowerneck
     direction -0.0308541 0.994709 0.0979874   
     length 1.75553   
     axis 0 0 0   XYZ
    dof rx ry rz
    limits (-20.0 45.0)
           (-30.0 30.0)
           (-30.0 30.0)
  end
  begin
     id 15 
     name upperneck
     direction 0.0588398 0.995804 -0.0700903   
     length 1.76878   
     axis 0 0 0   XYZ
    dof rx ry rz
    limits (-20.0 45.0)
           (-30.0 30.0)
           (-30.0 30.0)
  end
  begin
     id 16
     name head
     direction 0.0209966 0.999159 -0.0352225  
     length 1.77193  
     axis 0 0 0   XYZ
    dof rx ry rz
    limits (-20.0 45.0)
           (-30.0 30.0)
           (-30.0 30.0)
  end
  begin
     id 17 
     name lclavicle
     direction 0.938182 0.335073 -0.0868338  
     length 3.58396  
     axis 0 0 0   XYZ
    dof ry rz
    limits (-20.0 10.0)
           (0.0 20.0)
  end
  begin
     id 18 
     name lhumerus
     direction 1 -4.48971e-011 -1.26313e-017   
     length 4.983   
     axis 180 -30 -90   XYZ
    dof rx ry rz
    limits (-60.0 90.0)
           (-90.0 90.0)
           (-90.0 90.0)
  end
  begin
     id 19
     name lradius
     direction 1 -4.48948e-011 -5.89033e-027   
     length 3.48356   
     axis 180 -30 -90   XYZ
    dof rx
    limits (-10.0 170.0)
  end
  begin
     id 20
     name lwrist
     direction 1 -4.48977e-011 -1.48983e-026   
     length 1.74178   
     axis 9.0955e-015 90 90   XYZ
    dof ry
    limits (-180.0 0.0)
 end
  begin
     id 21 
     name lhand
     direction 1 -4.49046e-011 -2.98066e-026   
     length 0.715259   
     axis 1.90115e-014 90 90   XYZ
    dof rx rz
    limits (-90.0 90.0)
           (-45.0 45.0)
  end
  begin
     id 22 
     name lfingers
     direction 1 -4.48907e-011 -5.95731e-026   
     length 0.576661   
     axis 3.80223e-014 90 90   XYZ
    dof rx
    limits (0.0 90.0)
  end
  begin
     id 23
     name lthumb
     direction 0.707107 -6.34963e-011 0.707107   
     length 0.827973   
     axis -90 45 -3.84942e-014   XYZ
    dof rx rz
    limits (-45.0 45.0)
           (-45.0 45.0)
  end
  begin
     id 24 
     name rclavicle
     direction -0.909637 0.398485 -0.11735   
     length 3.44819  
     axis 0 0 0   XYZ 
    dof ry rz
    limits (-10.0 20.0)
           (-20.0 0.0)
  end
  begin
     id 25 
     name rhumerus
     direction -1 -4.48978e-011 -1.09333e-027  
     length 5.2419   
     axis 180 30 90   XYZ
    dof rx ry rz
    limits (-90.0 60.0)
           (-90.0 90.0)
           (-90.0 90.0)
  end
  begin
     id 26 
     name rradius
     direction -1 -4.48953e-011 -7.61841e-027   
     length 3.44417   
     axis 180 30 90   XYZ
    dof rx
    limits (-10.0 170.0)
  end
  begin
     id 27 
     name rwrist
     direction -1 -4.48977e-011 -1.48983e-026   
     length 1.72209   
     axis 9.0955e-015 -90 -90   XYZ
    dof ry
    limits (-180.0 0.0)
  end
  begin
     id 28
     name rhand
     direction -1 -4.49027e-011 -2.98038e-026   
     length 0.622529   
     axis 1.90115e-014 -90 -90   XYZ
    dof rx rz
    limits (-90.0 90.0)
           (-45.0 45.0)
  end
  begin
     id 29
     name rfingers
     direction -1 -4.48838e-011 -5.95531e-026   
     length 0.501899   
     axis 3.80223e-014 -90 -90   XYZ
    dof rx
    limits (0.0 90.0)
  end
  begin
     id 30
     name rthumb
     direction -0.707107 -6.34937e-011 0.707107   
     length 0.720629   
     axis -90 -45 3.84942e-014   XYZ
    dof rx rz
    limits (-45.0 45.0)
           (-45.0 45.0)
  end
:hierarchy
  begin
    root lhipjoint rhipjoint lowerback
    lhipjoint lfemur
    lfemur ltibia
    ltibia lfoot
    lfoot ltoes
    rhipjoint rfemur
    rfemur rtibia
    rtibia rfoot
    rfoot rtoes
    lowerback upperback
    upperback thorax
    thorax lowerneck lclavicle rclavicle
    lowerneck upperneck
    upperneck head
    lclavicle lhumerus
    lhumerus lradius
    lradius lwrist
    lwrist lhand lthumb
    lhand lfingers
    rclavicle rhumerus
    rhumerus rradius
    rradius rwrist
    rwrist rhand rthumb
    rhand rfingers
  end

#!OML:ASF F:\VICON\USERDATA\Patient Classification 1\PLAYGROUND\JustinFriday\JustinFriday.ASF
:FULLY-SPECIFIED
:DEGREES
321
root 18.5282 18.2153 51.3598 173.502 -57.8596 -173.734
lowerback 17.1313 1.02749 -4.91006
upperback 4.37006 0.395669 6.53613
thorax -4.98763 0.0372781 9.87541
lowerneck 8.17733 -16.0979 -9.06906
upperneck -29.1874 -23.4724 10.5934
head -8.06295 -11.9956 6.73589
rclavicle 7.15625e-015 -5.08889e-014
rhumerus -9.53233 -8.30753 -57.9123
rradius 74.5784
rwrist 17.6914
rhand -32.6064 -14.7667
rfingers 7.12502
rthumb -5.83426 -44.6664
lclavicle 7.15625e-015 -5.08889e-014
lhumerus -14.4705 -1.73376 85.7602
lradius 47.9641
lwrist 2.90268
lhand -21.976 -10.4774
lfingers 7.12502
lthumb 4.43195 19.4563
rfemur -12.3321 24.9339 25.5266
rtibia 69.9069
rfoot 1.7186 8.57107
rtoes 35.547
lfemur -9.88058 4.04514 -8.40701
ltibia 14.8267
lfoot -1.66484 -8.73737
ltoes -9.82505
322
root 18.4455 18.2675 51.3941 173.811 -57.0582 -173.625
lowerback 16.802 1.11114 -4.75677
upperback 4.22979 0.558214 6.4147
thorax -4.99355 0.130292 9.6029
lowerneck 8.25883 -16.0126 -9.053
upperneck -28.981 -23.232 10.869
head -7.98608 -11.9108 6.7928
rclavicle -5.84427e-014 -2.8625e-014
rhumerus -8.77464 -8.43653 -57.9219
rradius 73.0865
rwrist 17.5117
rhand -31.362 -15.06
rfingers 7.12502
rthumb -4.63265 -44.9893
lclavicle -5.84427e-014 -2.8625e-014
lhumerus -13.6966 -2.78134 85.7646
lradius 47.9285
lwrist 2.35331
lhand -22.3136 -10.708
lfingers 7.12502
lthumb 4.10591 19.2322
rfemur -14.1225 24.0782 25.2847
rtibia 71.7857
rfoot 4.00842 6.88031
rtoes 36.0067
lfemur -8.84328 4.74 -8.51784
ltibia 12.8211
lfoot -0.844826 -8.36873
ltoes -9.548
323
root 18.3573 18.3135 51.4357 175.377 -56.6377 -174.623
lowerback 16.1075 0.956154 -5.13941
upperback 4.00802 0.340594 6.20668
thorax -4.81312 0.0437918 9.62607
lowerneck 8.06034 -15.8269 -9.3155
upperneck -28.4364 -22.8856 10.9916
head -7.7482 -11.7488 6.76843
rclavicle -2.42517e-014 -4.77083e-015
rhumerus -7.5626 -8.1674 -57.9753
rradius 71.4222
rwrist 17.1031
rhand -30.3299 -14.9022
rfingers 7.12502
rthumb -3.63609 -44.8509
lclavicle -2.42517e-014 -4.77083e-015
lhumerus -13.032 -3.32255 85.8138
lradius 48.087
lwrist 1.92051
lhand -22.9502 -10.5101
lfingers 7.12502
lthumb 3.49121 19.4411
rfemur -16.2554 22.6541 24.0935
rtibia 73.6868
rfoot 3.58076 6.05546
rtoes 37.5975
lfemur -8.42508 4.93675 -9.45016
ltibia 11.1479
lfoot 0.0218031 -8.15269
ltoes -7.29165
324
root 18.2767 18.3509 51.4823 176.865 -56.3261 -175.563
lowerback 15.5563 0.871649 -5.5144
upperback 3.75765 0.219384 6.02034
thorax -4.75774 0.010903 9.65303
lowerneck 7.84874 -15.7167 -9.25534
upperneck -27.9655 -22.6734 10.8513
head -7.59987 -11.643 6.6474
rclavicle 3.77691e-014 -3.4191e-014
rhumerus -6.51118 -8.09341 -57.8024
rradius 69.816
rwrist 16.2855
rhand -30.6944 -15.0726
rfingers 7.12502
rthumb -3.98804 -45.015
lclavicle 3.77691e-014 -3.4191e-014
lhumerus -12.4182 -4.29656 85.9916
lradius 48.2316
lwrist 0.900791
lhand -24.5389 -9.81732
lfingers 7.12502
lthumb 1.9569 20.1535
rfemur -18.315 20.9364 22.9726
rtibia 75.5405
rfoot 2.82863 5.32268
rtoes 39.2172
lfemur -8.28862 5.04639 -10.3752
ltibia 9.8972
lfoot 1.58524 -8.91594
ltoes 0.6703
325
root 18.2142 18.3789 51.5163 177.018 -55.7886 -175.507
lowerback 15.72 1.01964 -5.38136
upperback 3.53184 0.450014 5.91103
thorax -5.13558 0.156309 9.41348
lowerneck 7.86233 -15.8046 -9.21844
upperneck -27.4988 -22.683 10.9385
head -7.43322 -11.657 6.61665
rclavicle 1.82882e-014 -4.29375e-014
rhumerus -5.90494 -8.34929 -57.5199
rradius 68.2132
rwrist 15.6252
rhand -31.3119 -15.4853
rfingers 7.12502
rthumb -4.58435 -45.4157
lclavicle 1.82882e-014 -4.29375e-014
lhumerus -11.7556 -5.33139 86.1109
lradius 48.4395
lwrist 1.16479
lhand -23.8597 -9.97446
lfingers 7.12502
lthumb 2.61285 19.9893
rfemur -19.7895 19.4453 22.9623
rtibia 77.3977
rfoot 2.13827 4.1156
rtoes 40.731
lfemur -7.8097 5.28351 -10.4877
ltibia 9.03058
lfoot 1.89168 -8.58907
ltoes 0.385802
